<svg xmlns="http://www.w3.org/2000/svg" viewBox="0 0 527.41 53.15"><defs><style>.cls-1{fill:#fff;}</style></defs><title>Recurso 1logo</title><g id="Capa_2" data-name="Capa 2"><g id="Capa_1-2" data-name="Capa 1"><path class="cls-1" d="M13.64,45.43a2.19,2.19,0,0,0-.84,1.43c-.09.58-.21,1.14-.35,1.7A3.35,3.35,0,0,1,11.72,50a2.21,2.21,0,0,1-1.84.52c-.19.23-.22.37-.11.42s.22.25.32.62a2.11,2.11,0,0,0-1.39.14,3.16,3.16,0,0,1-1,.42A5.6,5.6,0,0,1,5,50.33,15.1,15.1,0,0,1,3.1,47.52a27.22,27.22,0,0,1-1.4-3.13A23.69,23.69,0,0,0,.49,41.6q0-.27.24-.24l.45,0a6.35,6.35,0,0,1-.52-1.56A2.92,2.92,0,0,0,0,38.4q2-4.3,4.31-9t4.63-9.53Q11.27,15,13.6,10.12T18.09.49a32.52,32.52,0,0,1,3.79,1.63,19.13,19.13,0,0,1,3.37,2.19A13,13,0,0,1,27.86,7.2a9.47,9.47,0,0,1,1.43,3.72c-.09.28-.21.37-.35.28s-.25,0-.35.14a2.13,2.13,0,0,1,.39.59.61.61,0,0,1,0,.35,1.18,1.18,0,0,0-.07.45,1.54,1.54,0,0,0,.35.77.48.48,0,0,0-.49.1c-.09.12-.25.13-.48,0a2.72,2.72,0,0,1,.2,1.53,3.76,3.76,0,0,1-.41,1,4.55,4.55,0,0,0-.46,1,2.46,2.46,0,0,0,.11,1.43.53.53,0,0,0-.38.1,1.08,1.08,0,0,0-.18.24.74.74,0,0,1-.17.25c-.07.07-.2.08-.38,0a24.7,24.7,0,0,1,.13,3.65c0,1.23-.09,2.49-.13,3.76s0,2.59,0,3.93a22.32,22.32,0,0,0,.55,4.18A14.32,14.32,0,0,0,32,30.19,24.33,24.33,0,0,0,34.89,24a48.81,48.81,0,0,0,1.67-7.3q.59-3.9,1.22-7.93A5.59,5.59,0,0,0,39,6.89a19.39,19.39,0,0,0,.77-2.3l.63-2.4A8.21,8.21,0,0,1,41.26,0a4.65,4.65,0,0,1,2.12.73A13.82,13.82,0,0,1,45,2.05a18.56,18.56,0,0,0,1.6,1.36,4.69,4.69,0,0,0,2.09.83c.65.93,1.25,1.83,1.81,2.68a7.84,7.84,0,0,1,1.11,2.89A5.48,5.48,0,0,0,51,11.34c-.13.56-.29,1.11-.45,1.67a6.2,6.2,0,0,1-.66,1.53,3.59,3.59,0,0,1-1.18,1.18,31.17,31.17,0,0,1-.63,3.9c-.28,1.21-.53,2.39-.76,3.55s-.44,2.36-.63,3.61a24.45,24.45,0,0,0-.21,4.11c-.41,1.34-.88,2.72-1.39,4.14A25.82,25.82,0,0,0,44,39a7.48,7.48,0,0,0-2.09,2.57c-.51,1-1,2-1.6,3.06-.23.19-.37.23-.42.11s-.25-.2-.62-.24c0,.41,0,.68-.25.8s-.19.45,0,1a7.37,7.37,0,0,0-2.09,1.47,14.5,14.5,0,0,1-2,1.66,5.89,5.89,0,0,1-2.51,1,7.49,7.49,0,0,1-3.72-.59A34.47,34.47,0,0,1,22.61,44a25.35,25.35,0,0,1-4.31-7.72,1.64,1.64,0,0,0-1.05.9,12.8,12.8,0,0,0-.62,1.46c-.19.51-.37,1-.56,1.39a.9.9,0,0,1-.83.63,3.09,3.09,0,0,1-.53,1.15c-.25.34-.5.69-.73,1A4.14,4.14,0,0,0,13.46,44,2,2,0,0,0,13.64,45.43Z"/><path class="cls-1" d="M64.56,47.1a5.45,5.45,0,0,1-.24,3.27,4,4,0,0,1-1.67,1.77,5.53,5.53,0,0,1-2.47.66,12.1,12.1,0,0,1-2.65-.14,11,11,0,0,1-1.25-2.43c-.37-1-.72-2-1-3s-.62-2.07-.87-3.09-.48-1.93-.66-2.72a6.61,6.61,0,0,0,.45-1.91c.07-.72.12-1.45.14-2.19s.05-1.5.07-2.26a21.17,21.17,0,0,1,.17-2.19A32.69,32.69,0,0,1,56,27.27a37.56,37.56,0,0,0,1.49-5.49,1.85,1.85,0,0,0-.1-1.19,1.48,1.48,0,0,1-.1-1,.52.52,0,0,1,.41-.38.57.57,0,0,0,.42-.46,2.86,2.86,0,0,0,.11-1.25,1.84,1.84,0,0,1,.24-1.18c.23-.37.52-.92.87-1.64a4,4,0,0,0,.38-2.26,7.15,7.15,0,0,0,1.18-1,11.88,11.88,0,0,1,1.15-1,7.85,7.85,0,0,1,1.32-.8,4.15,4.15,0,0,1,1.78-.35,3.73,3.73,0,0,1,.73,1.53c.11.56.23,1.12.35,1.67A6.73,6.73,0,0,0,66.72,14a2.44,2.44,0,0,0,1.18,1.15v1.39c0,.55,0,1.1.07,1.63a5.8,5.8,0,0,0,.31,1.46,1.37,1.37,0,0,0,.8.87q-1.24,3.35-2.33,6.61A59.83,59.83,0,0,0,65,33.71a41.49,41.49,0,0,0-.87,6.64A28.55,28.55,0,0,0,64.56,47.1Z"/><path class="cls-1" d="M73.74,20.66a6.15,6.15,0,0,1,1.57-2.5,11.89,11.89,0,0,1,2.36-1.78,16.93,16.93,0,0,1,2.68-1.21c.93-.33,1.81-.61,2.65-.84q2.77-1.19,6-2.26t6.47-1.91a38,38,0,0,1,6.78-1.08,20.93,20.93,0,0,1,7.3.87,5,5,0,0,0,.63,1.32c.28.42.57.84.87,1.25s.57.83.8,1.22a3.17,3.17,0,0,1,.42,1.22,5.58,5.58,0,0,1,1.11,1.35,2.63,2.63,0,0,1,.14,1.92c-.47.37-.92.71-1.36,1a9.3,9.3,0,0,1-1.42.8,16.39,16.39,0,0,0-5.22-.42l-4.73.35a2,2,0,0,0-1.5-.63,6.24,6.24,0,0,0-1.81.28l-1.88.56a3.87,3.87,0,0,1-1.77.13,3.51,3.51,0,0,1-1.7.73c-.68.12-1.41.23-2.2.32,0,.23,0,.38.14.45s.17.22.07.45a2.29,2.29,0,0,0,1.08.7l1.39.42a5.43,5.43,0,0,1,1.29.52,1.64,1.64,0,0,1,.77,1,3.32,3.32,0,0,1,1.8.48,4.48,4.48,0,0,1,1.26,1.19,5.58,5.58,0,0,1,.73,1.49,5.08,5.08,0,0,1,.24,1.43c.14.37.3.53.49.48a.71.71,0,0,1,.62.28,4.28,4.28,0,0,0,1,1.85,8,8,0,0,1,1.32,2q.14,1.74.21,3.09a6.54,6.54,0,0,1-.49,2.75A15.19,15.19,0,0,1,99,44.59a23.22,23.22,0,0,1-4.17,3.59,30.11,30.11,0,0,1-5,2.68,53.8,53.8,0,0,1-5.14,1.87,1.32,1.32,0,0,0-.56,0c-.19.05-.23-.07-.14-.34a2.68,2.68,0,0,1-1.22.62,5.89,5.89,0,0,1-1.42.11c-.51,0-1-.06-1.57-.11a5.59,5.59,0,0,0-1.49.07,12.11,12.11,0,0,1-.87-.94A2.91,2.91,0,0,1,76.81,51c-.24,0-.34-.11-.32-.34s-.06-.35-.24-.35a2.13,2.13,0,0,0,.38-.8.29.29,0,0,0-.21-.17,1.57,1.57,0,0,1-.31-.18.25.25,0,0,1-.07-.31,2.35,2.35,0,0,0,.21-1.29c0-.49-.09-1-.14-1.49a4.49,4.49,0,0,1,.1-1.47,1.78,1.78,0,0,1,1-1.11,13.66,13.66,0,0,0,4.49-.17,19.91,19.91,0,0,0,4-1.29,39.91,39.91,0,0,0,3.58-1.81c1.14-.65,2.26-1.23,3.38-1.74a2.78,2.78,0,0,1,.59-1,8.29,8.29,0,0,1,.8-.77,5.46,5.46,0,0,0,.76-.76,2.44,2.44,0,0,0,.49-1c0-.32,0-.52-.24-.59a.48.48,0,0,1-.32-.52L94,33.53a14.32,14.32,0,0,0-3-1.28,16.34,16.34,0,0,1-2.85-1.15,1.79,1.79,0,0,1-1.43.21A16.48,16.48,0,0,0,85,30.89c-1.57-.09-3.09-.26-4.55-.49a16.61,16.61,0,0,1-4.21-1.25,2.75,2.75,0,0,0-.35-.63c-.14-.18-.39-.23-.76-.14-.28-.37-.56-.73-.84-1.07a7.9,7.9,0,0,1-.76-1.15c.09-.56.16-1,.2-1.43a1.47,1.47,0,0,0-.41-1.15c.18-.6.32-1.09.41-1.46A3.54,3.54,0,0,0,73.74,20.66Z"/><path class="cls-1" d="M141.3,45.22a5.52,5.52,0,0,1-2,5,7.44,7.44,0,0,1-2.23,1.32c-.83.33-1.64.63-2.43.91-.37-.24-.73-.48-1.08-.73a3.86,3.86,0,0,0-1.22-.6c-.6-1.11-1.18-2.09-1.74-3a5,5,0,0,1-.76-3s0-.3.1-.76.16-1,.28-1.54.21-1.07.28-1.56.1-.75.1-.8a14.77,14.77,0,0,0-3.34.7,28,28,0,0,0-3.37,1.32q-1.64.77-3.06,1.53c-.95.51-1.73,1-2.33,1.32a4.82,4.82,0,0,1-.28,1,17.16,17.16,0,0,1-.7,1.67,10.48,10.48,0,0,1-.9,1.56c-.33.47-.65.7-1,.7a2.06,2.06,0,0,0,.21.42.54.54,0,0,1,0,.55,7.65,7.65,0,0,0-1.74.73,10.24,10.24,0,0,1-1.6.77,5,5,0,0,1-1.8.31,5.14,5.14,0,0,1-2.3-.69,1,1,0,0,0-.35-.73,4.88,4.88,0,0,0-.73-.56l-.66-.42c-.19-.11-.28-.22-.28-.31-.23.05-.32-.12-.28-.49s.23-.46.56-.28a4.74,4.74,0,0,1-.94-1.7,7.37,7.37,0,0,0-.8-1.85,1.06,1.06,0,0,0,.24-.48q.11-.35.18-.63a1,1,0,0,1,.21-.42c.09-.09.21-.07.35.07a1.82,1.82,0,0,1,0-1c.09-.28.18-.53.27-.76a4,4,0,0,0,.21-.7,1,1,0,0,0-.21-.77,8.13,8.13,0,0,0,1.46-3.3,21.84,21.84,0,0,0,.42-3.24,4.05,4.05,0,0,0,.87-1.39,10.11,10.11,0,0,0,.59-1.84,7.17,7.17,0,0,0,.18-1.81,4.9,4.9,0,0,0-.25-1.43c0-.23.3-.3.77-.2a44.45,44.45,0,0,0,.59-5.19c.12-1.92.31-3.75.59-5.49a16.17,16.17,0,0,1,1.39-4.59A4.79,4.79,0,0,1,116,10.3a11,11,0,0,0,1.08,2.57A19.43,19.43,0,0,0,118.51,15c.54.68,1.07,1.36,1.6,2a16.89,16.89,0,0,1,1.5,2.37c0,.88-.14,1.9-.28,3.06s-.31,2.34-.52,3.55-.42,2.36-.63,3.48-.4,2.06-.59,2.85a.49.49,0,0,0,.38.42c.21,0,.25.25.11.62,1.11-.27,2.27-.53,3.48-.76s2.41-.49,3.61-.77,2.38-.59,3.52-.94a17.84,17.84,0,0,0,3.16-1.28c.23-1.81.54-3.62.91-5.43a16.23,16.23,0,0,0,.14-5.57,2,2,0,0,0,.55-.69,1.08,1.08,0,0,1,.7-.56,9.1,9.1,0,0,1-.28-2.78,10.21,10.21,0,0,1,.52-2.78,6.19,6.19,0,0,1,1.32-2.26,4,4,0,0,1,2.13-1.22,13.89,13.89,0,0,1,1.32,2.4c.37.86.75,1.72,1.15,2.57s.81,1.67,1.25,2.44a7.15,7.15,0,0,0,1.7,2c.14,1.35.25,2.74.32,4.17s.12,2.9.17,4.39q-.56,2.64-1.22,5.11a33.74,33.74,0,0,0-.94,5.25,4.24,4.24,0,0,0-.76,1.26c-.19.46-.37.93-.56,1.42a11.74,11.74,0,0,1-.63,1.39,4.71,4.71,0,0,1-.83,1.15,2.85,2.85,0,0,1,.1,1.57A2.64,2.64,0,0,0,141.3,45.22Z"/><path class="cls-1" d="M161.89,47.1a5.45,5.45,0,0,1-.24,3.27A4,4,0,0,1,160,52.14a5.53,5.53,0,0,1-2.47.66,12.1,12.1,0,0,1-2.65-.14,11,11,0,0,1-1.25-2.43c-.37-1-.72-2-1-3s-.62-2.07-.87-3.09-.48-1.93-.66-2.72a6.61,6.61,0,0,0,.45-1.91c.07-.72.11-1.45.14-2.19s0-1.5.07-2.26a21.17,21.17,0,0,1,.17-2.19,32.69,32.69,0,0,1,1.43-5.57,38.86,38.86,0,0,0,1.49-5.49,1.85,1.85,0,0,0-.1-1.19,1.54,1.54,0,0,1-.11-1,.55.55,0,0,1,.42-.38.57.57,0,0,0,.42-.46,2.69,2.69,0,0,0,.1-1.25,1.79,1.79,0,0,1,.25-1.18c.23-.37.52-.92.87-1.64a4.09,4.09,0,0,0,.38-2.26,7.15,7.15,0,0,0,1.18-1,11.88,11.88,0,0,1,1.15-1,7.13,7.13,0,0,1,1.32-.8,4.15,4.15,0,0,1,1.78-.35,3.73,3.73,0,0,1,.73,1.53c.11.56.23,1.12.34,1.67a6.75,6.75,0,0,0,.53,1.57,2.44,2.44,0,0,0,1.18,1.15v1.39c0,.55,0,1.1.07,1.63a5.39,5.39,0,0,0,.31,1.46,1.37,1.37,0,0,0,.8.87q-1.24,3.35-2.33,6.61a59.83,59.83,0,0,0-1.77,6.58,41.49,41.49,0,0,0-.87,6.64A28.55,28.55,0,0,0,161.89,47.1Z"/><path class="cls-1" d="M210.59,39.31a1.25,1.25,0,0,0-.91.73c-.18.39-.36.8-.52,1.22s-.32.8-.48,1.14a.79.79,0,0,1-.74.52,1.93,1.93,0,0,1-.38,1c-.21.28-.4.57-.59.87a3.65,3.65,0,0,0-.42,1,2,2,0,0,0,.14,1.22,1.81,1.81,0,0,0-.69,1.18c-.1.51-.2,1-.32,1.46a2.78,2.78,0,0,1-.59,1.19,1.8,1.8,0,0,1-1.53.41c-.14.19-.16.31-.07.35s.16.21.21.49a1.66,1.66,0,0,0-1.15.1,2.32,2.32,0,0,1-.94.32A4.59,4.59,0,0,1,199.42,51a12.35,12.35,0,0,1-1.53-2.33c-.44-.85-.83-1.72-1.18-2.6s-.68-1.65-1-2.3a3.33,3.33,0,0,0,.07-1.5,2.88,2.88,0,0,0-.49-1.21q3.42-7.24,7.45-15.45t7.65-16.21c1.07.42,2.12.9,3.17,1.43a16.57,16.57,0,0,1,2.85,1.84,11.07,11.07,0,0,1,2.19,2.4,7.68,7.68,0,0,1,1.18,3c-.09.28-.2.38-.31.31s-.22,0-.31.11a2,2,0,0,1,.31.48.66.66,0,0,1,0,.28,1.29,1.29,0,0,0,0,.38,1.54,1.54,0,0,0,.21.66c-.18,0-.31,0-.38.07s-.22.1-.45,0a2.41,2.41,0,0,1,.17,1.26,3.32,3.32,0,0,1-.31.87,4.14,4.14,0,0,0-.35.83,2,2,0,0,0,.07,1.15.41.41,0,0,0-.31.1,1.68,1.68,0,0,0-.18.21,1,1,0,0,1-.17.21.29.29,0,0,1-.31,0,17.43,17.43,0,0,1,.14,3.06c-.05,1-.09,2.05-.11,3.09s0,2.14,0,3.27A18.46,18.46,0,0,0,218,38a11.75,11.75,0,0,0,4-3.76,22,22,0,0,0,2.44-5.15A37.05,37.05,0,0,0,225.82,23q.5-3.27,1.05-6.68a4.31,4.31,0,0,0,1-1.53c.23-.6.44-1.24.63-1.91s.37-1.35.55-2a10.61,10.61,0,0,1,.7-1.85,3.88,3.88,0,0,1,1.77.67,11.34,11.34,0,0,1,1.36,1.11q.63.59,1.32,1.11a3.65,3.65,0,0,0,1.74.66c.56.79,1.07,1.56,1.53,2.3a6.33,6.33,0,0,1,.91,2.36,4,4,0,0,0-.52,1.26c-.12.46-.25.92-.39,1.39a5.88,5.88,0,0,1-.55,1.28,3.14,3.14,0,0,1-1,1c-.14,1.21-.31,2.31-.52,3.31s-.42,2-.63,2.95-.38,2-.52,3a21,21,0,0,0-.14,3.44c-.37,1.07-.76,2.21-1.18,3.41a33.93,33.93,0,0,0-1,3.27,6.44,6.44,0,0,0-1.74,2.16c-.42.83-.86,1.67-1.32,2.5-.19.19-.31.24-.35.14s-.21-.16-.49-.21a.59.59,0,0,1,0,.42.92.92,0,0,1-.17.25.53.53,0,0,0-.14.31,1.07,1.07,0,0,0,.1.56,5.37,5.37,0,0,0-1.74,1.18,13.45,13.45,0,0,1-1.63,1.39,4.82,4.82,0,0,1-2.09.83,6.52,6.52,0,0,1-3.16-.48,26.45,26.45,0,0,1-5.05-4.8A23,23,0,0,1,210.59,39.31Z"/><path class="cls-1" d="M277.1,31.1a4.5,4.5,0,0,0,.14,1.6,10.94,10.94,0,0,0,.52,1.49c.21.49.4,1,.59,1.5a10.89,10.89,0,0,1,.42,1.53,8.34,8.34,0,0,1,0,2.12,12.64,12.64,0,0,1-.49,2.23,8.31,8.31,0,0,1-.9,2,3.76,3.76,0,0,1-1.33,1.28,6.72,6.72,0,0,1-2.36,2,13.9,13.9,0,0,0-2.58,1.67,5.13,5.13,0,0,1-1.7.7l-1.91.41c-.51.28-1.12.57-1.81.87s-1.42.58-2.16.84a12.74,12.74,0,0,1-2.23.55,7.9,7.9,0,0,1-1.94.11,18.2,18.2,0,0,1-4.07,1,14.14,14.14,0,0,1-4.63-.32,11.64,11.64,0,0,1-4.63-.2,11,11,0,0,1-3.75-1.78,13,13,0,0,1-2.85-2.92,17.3,17.3,0,0,1-2-3.58,18.38,18.38,0,0,1,.28-7.2,24.69,24.69,0,0,1,2.4-6,31.66,31.66,0,0,1,3.58-5.07q2-2.34,3.9-4.56a.7.7,0,0,0,.66,0,1.75,1.75,0,0,0,.45-.48,5.39,5.39,0,0,1,.45-.59,1,1,0,0,1,.6-.35,3.35,3.35,0,0,1,1.42-1.57,3.84,3.84,0,0,0,1.5-1.49,3.1,3.1,0,0,0,1-.42,6,6,0,0,0,.8-.63c.26-.23.52-.45.8-.66a2.6,2.6,0,0,1,1-.45v-.77a5,5,0,0,0,1.84-1.28l1.43-1.78c.41,0,.75-.07,1-.07a6.31,6.31,0,0,0,1.15-.14,8.73,8.73,0,0,1,1-1.46,6.51,6.51,0,0,1,1.36-1,6,6,0,0,0,1.84.56,3.08,3.08,0,0,1,1.78.9,1.8,1.8,0,0,0,.41,1.08,5.12,5.12,0,0,0,.77.7,8.23,8.23,0,0,1,.8.66,1.79,1.79,0,0,1,.52,1,.34.34,0,0,0,.38-.07c.07-.09.2-.12.39-.07a3,3,0,0,0,.48,1.29,3.49,3.49,0,0,1,.56,1.22,6.22,6.22,0,0,0-.52,1.42,1.58,1.58,0,0,1-.87,1.08c-.05.33,0,.5.28.52a.43.43,0,0,1,.41.38,1.05,1.05,0,0,1-.21.91,46.49,46.49,0,0,1,3,5.74A45.11,45.11,0,0,0,277.1,31.1Zm-8.7,6.61a3.84,3.84,0,0,1,.73-1.26,2.29,2.29,0,0,0,.52-1.46,2.9,2.9,0,0,1-.41-.87,4.76,4.76,0,0,1-.07-1,27.38,27.38,0,0,1-2.65-4.63,35.79,35.79,0,0,0-2.5-4.63,1.89,1.89,0,0,1-.49.56c-.23.19-.49.14-.76-.14a1.36,1.36,0,0,1-.49.8,1.17,1.17,0,0,1-.77.21,3,3,0,0,1-.87-.21,3.45,3.45,0,0,1-.8-.45c-1.34,1.06-2.69,2.11-4,3.13a19.93,19.93,0,0,0-3.62,3.55c-.19.09-.3.12-.35.1s-.18,0-.41.11a12.15,12.15,0,0,1-1.36,2.4c-.53.71-1.06,1.45-1.57,2.19a14.7,14.7,0,0,0-1.32,2.36,7.89,7.89,0,0,0-.62,2.92,5.34,5.34,0,0,0,2.78,1.19,15.73,15.73,0,0,0,3.3.07,32.74,32.74,0,0,0,3.34-.46,16.93,16.93,0,0,1,3-.31A20,20,0,0,0,264,40C265.41,39.27,266.87,38.5,268.4,37.71Z"/><path class="cls-1" d="M308.82,20.66a6.15,6.15,0,0,1,1.57-2.5,11.34,11.34,0,0,1,2.36-1.78,16.54,16.54,0,0,1,2.68-1.21q1.4-.49,2.64-.84,2.79-1.19,5.95-2.26t6.47-1.91a38.15,38.15,0,0,1,6.79-1.08,21,21,0,0,1,7.3.87,5,5,0,0,0,.63,1.32c.27.42.56.84.87,1.25s.56.83.8,1.22a3,3,0,0,1,.41,1.22,5.4,5.4,0,0,1,1.12,1.35,2.69,2.69,0,0,1,.14,1.92c-.47.37-.92.71-1.36,1a9.41,9.41,0,0,1-1.43.8,16.3,16.3,0,0,0-5.21-.42l-4.74.35a2,2,0,0,0-1.49-.63,6.24,6.24,0,0,0-1.81.28l-1.88.56a3.88,3.88,0,0,1-1.77.13,3.54,3.54,0,0,1-1.71.73c-.67.12-1.4.23-2.19.32,0,.23,0,.38.14.45s.16.22.07.45a2.29,2.29,0,0,0,1.08.7l1.39.42a5.43,5.43,0,0,1,1.29.52,1.63,1.63,0,0,1,.76,1,3.33,3.33,0,0,1,1.81.48,4.31,4.31,0,0,1,1.25,1.19,5,5,0,0,1,.73,1.49,4.79,4.79,0,0,1,.25,1.43q.21.55.48.48a.72.72,0,0,1,.63.28,4.36,4.36,0,0,0,1,1.85,7.76,7.76,0,0,1,1.33,2c.09,1.16.16,2.19.2,3.09a6.38,6.38,0,0,1-.48,2.75A15.19,15.19,0,0,1,334,44.59a23.22,23.22,0,0,1-4.17,3.59,30.51,30.51,0,0,1-5,2.68,54,54,0,0,1-5.15,1.87,1.28,1.28,0,0,0-.55,0c-.19.05-.24-.07-.14-.34a2.68,2.68,0,0,1-1.22.62,6,6,0,0,1-1.43.11c-.51,0-1-.06-1.56-.11a5.67,5.67,0,0,0-1.5.07c-.32-.32-.61-.64-.87-.94a3.2,3.2,0,0,1-.59-1.15c-.23,0-.33-.11-.31-.34s-.06-.35-.24-.35a2.34,2.34,0,0,0,.38-.8.31.31,0,0,0-.21-.17,1.33,1.33,0,0,1-.31-.18.24.24,0,0,1-.07-.31,2.45,2.45,0,0,0,.21-1.29c-.05-.49-.1-1-.14-1.49a4.23,4.23,0,0,1,.1-1.47,1.75,1.75,0,0,1,1-1.11,13.66,13.66,0,0,0,4.49-.17,19.91,19.91,0,0,0,4-1.29c1.25-.56,2.44-1.16,3.58-1.81s2.26-1.23,3.37-1.74a2.79,2.79,0,0,1,.6-1,8.29,8.29,0,0,1,.8-.77,6.06,6.06,0,0,0,.76-.76,2.56,2.56,0,0,0,.49-1c0-.32,0-.52-.25-.59a.49.49,0,0,1-.31-.52l-.76-.21a14.41,14.41,0,0,0-3-1.28,17,17,0,0,1-2.85-1.15,1.76,1.76,0,0,1-1.42.21,16.48,16.48,0,0,0-1.71-.42c-1.58-.09-3.09-.26-4.56-.49a16.53,16.53,0,0,1-4.2-1.25,3.19,3.19,0,0,0-.35-.63c-.14-.18-.4-.23-.77-.14-.28-.37-.55-.73-.83-1.07a7.94,7.94,0,0,1-.77-1.15c.09-.56.16-1,.21-1.43a1.45,1.45,0,0,0-.42-1.15c.19-.6.33-1.09.42-1.46A3.92,3.92,0,0,0,308.82,20.66Z"/><path class="cls-1" d="M377.56,46.12a11.63,11.63,0,0,1-1.22,2.41,10.52,10.52,0,0,1-4.28,3.72,7.25,7.25,0,0,1-2.78.69,3.46,3.46,0,0,1-1.22-.45,7.66,7.66,0,0,0-.66-.45l-.38-.25-.32-.17-.83-.35.28-.9a1.08,1.08,0,0,0-.07-.87,5.22,5.22,0,0,0-.84-.87l-.41-.42a2.6,2.6,0,0,1-.35-.42l-1.19-1.32,1.88-.48a4.44,4.44,0,0,0,2.33-1.26,3.76,3.76,0,0,0,.46-2.57,5.65,5.65,0,0,0-2.33-.07c-.63.14-1.27.3-1.92.49-.83.23-1.68.43-2.54.59a15.33,15.33,0,0,1-2.81.24c-.38,0-.72,0-1.05,0s-.67-.06-1-.11l-.7-.14c-.09-.51-.18-.8-.28-.87A2.91,2.91,0,0,1,355,42a4.88,4.88,0,0,1-.73-.94,1.85,1.85,0,0,1-.18-1.49,3.47,3.47,0,0,1-.42-1.26,8.4,8.4,0,0,0-.62,1.74l-.28.7-.7.14a.44.44,0,0,0-.2.31,1.34,1.34,0,0,0-.07.38l-.35,1.19-.28.24a3,3,0,0,0-.28.24,11.06,11.06,0,0,1-.35,1.25c-.14.42-.28.82-.41,1.19-.24.6-.43,1.19-.6,1.77a4.79,4.79,0,0,0-.17,1.71l-.28.76a2.76,2.76,0,0,1-.76.66c-.28.16-.56.32-.84.45a1.09,1.09,0,0,1-.38.25l-.38.17-.21.77-.84.14-1.08.2a3.12,3.12,0,0,1-.73.07l-.69-.07c-.51-.41-.91-.75-1.18-1a6.4,6.4,0,0,0-1-.73,3.33,3.33,0,0,1-.69-1.26c0-.27-.1-.53-.14-.76a4.83,4.83,0,0,1-.18-.7.68.68,0,0,0-.17-.41l-.9-.84.76-.63.07-1.18c.93-2.36,1.91-4.64,3-6.82s2.12-4.4,3.23-6.68q.55-1.11,1.08-2.22c.35-.74.71-1.48,1.08-2.23a1.43,1.43,0,0,1-.07-.48,1.57,1.57,0,0,1,.14-.63c.51-.79.92-1.5,1.25-2.12s.65-1.27,1-1.92.76-1.55,1.15-2.29a16.91,16.91,0,0,1,1.5-2.3l1.11-.48.49-.18a1.72,1.72,0,0,1,.62-.1l1,.14a10.57,10.57,0,0,0,3.41-2.54,35.79,35.79,0,0,0,3-3.93l.69-1,.91.56a3.69,3.69,0,0,0,1,.38l1.32.38q1.26.29,2.37.63a4.4,4.4,0,0,1,1.81,1A8.6,8.6,0,0,1,371.3,14a8.47,8.47,0,0,0,.2,1.12c.14.79.27,1.57.39,2.36s.19,1.67.24,2.65c.23.78.43,1.56.59,2.33s.31,1.54.45,2.33c.23,1.11.47,2.19.7,3.23a18.92,18.92,0,0,0,.9,3,2,2,0,0,1,.7.07,4.12,4.12,0,0,1,.73-.21l.87-.14.76-.07.28.7c.05.23.28.46.7.69a2.69,2.69,0,0,1,1.32.38,7.11,7.11,0,0,1,.77.67,2.18,2.18,0,0,0,.55.41l1.05.42-.56,1a9.43,9.43,0,0,1-2,2.4,12.12,12.12,0,0,1-2.89,1.92,7.94,7.94,0,0,1,.1.8,3.64,3.64,0,0,0,.18.8c.14.79.25,1.6.35,2.43a12.36,12.36,0,0,1,0,2.58Zm-20.11-12c1.39-.09,2.66-.2,3.79-.31s2.4-.32,3.79-.6c-.32-1.39-.67-2.84-1-4.34s-.77-3-1.18-4.49l-.42.7a29.68,29.68,0,0,0-2.68,3.26,39.68,39.68,0,0,0-2.19,3.41L356.69,33c-.28.41-.54.83-.77,1.25a4.48,4.48,0,0,1,.8-.07A3.48,3.48,0,0,0,357.45,34.09Z"/><path class="cls-1" d="M396.41,39.31a1.22,1.22,0,0,0-.9.73c-.19.39-.36.8-.53,1.22s-.32.8-.48,1.14a.79.79,0,0,1-.73.52,2,2,0,0,1-.39,1c-.21.28-.4.57-.59.87a4,4,0,0,0-.42,1,2,2,0,0,0,.14,1.22,1.81,1.81,0,0,0-.69,1.18c-.09.51-.2,1-.31,1.46a2.91,2.91,0,0,1-.6,1.19,1.79,1.79,0,0,1-1.53.41c-.14.19-.16.31-.07.35s.17.21.21.49a1.66,1.66,0,0,0-1.15.1,2.27,2.27,0,0,1-.93.32,4.57,4.57,0,0,1-2.2-1.47,12.35,12.35,0,0,1-1.53-2.33c-.44-.85-.83-1.72-1.18-2.6s-.68-1.65-1-2.3a3.33,3.33,0,0,0,.07-1.5,2.88,2.88,0,0,0-.49-1.21q3.42-7.24,7.45-15.45T396.2,9.39c1.07.42,2.12.9,3.17,1.43a16.57,16.57,0,0,1,2.85,1.84,10.83,10.83,0,0,1,2.19,2.4,7.68,7.68,0,0,1,1.18,3c-.09.28-.19.38-.31.31s-.22,0-.31.11a1.74,1.74,0,0,1,.31.48.66.66,0,0,1,0,.28,1.87,1.87,0,0,0,0,.38,1.5,1.5,0,0,0,.2.66c-.18,0-.31,0-.38.07s-.22.1-.45,0a2.41,2.41,0,0,1,.17,1.26,3.32,3.32,0,0,1-.31.87,4.14,4.14,0,0,0-.35.83,2,2,0,0,0,.07,1.15.41.41,0,0,0-.31.1,1.68,1.68,0,0,0-.18.21,1,1,0,0,1-.17.21.29.29,0,0,1-.31,0,17.43,17.43,0,0,1,.14,3.06c-.05,1-.09,2.05-.11,3.09s0,2.14,0,3.27a19.29,19.29,0,0,0,.48,3.52,11.75,11.75,0,0,0,4-3.76,22,22,0,0,0,2.44-5.15A37,37,0,0,0,411.65,23q.48-3.27,1-6.68a4.31,4.31,0,0,0,1-1.53c.23-.6.44-1.24.63-1.91s.37-1.35.56-2A9.85,9.85,0,0,1,415.54,9a4,4,0,0,1,1.78.67,12.07,12.07,0,0,1,1.35,1.11q.63.59,1.32,1.11a3.65,3.65,0,0,0,1.74.66c.56.79,1.07,1.56,1.53,2.3a6.33,6.33,0,0,1,.91,2.36,4.29,4.29,0,0,0-.52,1.26c-.12.46-.25.92-.39,1.39a5.88,5.88,0,0,1-.55,1.28,3.14,3.14,0,0,1-1,1c-.14,1.21-.31,2.31-.52,3.31s-.42,2-.62,2.95-.39,2-.53,3a21,21,0,0,0-.14,3.44c-.37,1.07-.76,2.21-1.18,3.41a33.93,33.93,0,0,0-1,3.27A6.57,6.57,0,0,0,416,43.69c-.42.83-.86,1.67-1.32,2.5-.19.19-.31.24-.35.14s-.21-.16-.49-.21a.59.59,0,0,1,0,.42.92.92,0,0,1-.17.25.53.53,0,0,0-.14.31,1.18,1.18,0,0,0,.1.56,5.37,5.37,0,0,0-1.74,1.18,13.45,13.45,0,0,1-1.63,1.39,4.82,4.82,0,0,1-2.09.83,6.52,6.52,0,0,1-3.16-.48,26.45,26.45,0,0,1-5.05-4.8A23,23,0,0,1,396.41,39.31Z"/><path class="cls-1" d="M436.62,39.31a1.22,1.22,0,0,0-.9.73c-.19.39-.36.8-.52,1.22s-.33.8-.49,1.14a.78.78,0,0,1-.73.52,2.12,2.12,0,0,1-.38,1q-.32.42-.6.87a3.63,3.63,0,0,0-.41,1,1.86,1.86,0,0,0,.14,1.22,1.78,1.78,0,0,0-.7,1.18c-.09.51-.2,1-.31,1.46a3,3,0,0,1-.59,1.19,1.81,1.81,0,0,1-1.54.41c-.13.19-.16.31-.06.35s.16.21.2.49a1.62,1.62,0,0,0-1.14.1,2.37,2.37,0,0,1-.94.32A4.5,4.5,0,0,1,425.46,51a12.39,12.39,0,0,1-1.54-2.33c-.44-.85-.83-1.72-1.18-2.6s-.68-1.65-1-2.3a3.19,3.19,0,0,0,.07-1.5,3,3,0,0,0-.48-1.21q3.4-7.24,7.44-15.45t7.65-16.21c1.07.42,2.12.9,3.17,1.43a16.57,16.57,0,0,1,2.85,1.84,10.83,10.83,0,0,1,2.19,2.4,7.68,7.68,0,0,1,1.18,3c-.09.28-.19.38-.31.31s-.22,0-.31.11a1.74,1.74,0,0,1,.31.48.66.66,0,0,1,0,.28,1.87,1.87,0,0,0,0,.38,1.54,1.54,0,0,0,.21.66c-.19,0-.32,0-.39.07s-.22.1-.45,0a2.32,2.32,0,0,1,.17,1.26,3.32,3.32,0,0,1-.31.87,4.81,4.81,0,0,0-.35.83,2,2,0,0,0,.07,1.15.41.41,0,0,0-.31.1,1,1,0,0,0-.17.21,1.68,1.68,0,0,1-.18.21.29.29,0,0,1-.31,0,17.43,17.43,0,0,1,.14,3.06c-.05,1-.08,2.05-.11,3.09s0,2.14,0,3.27A18.5,18.5,0,0,0,444,38a11.84,11.84,0,0,0,4-3.76,22.44,22.44,0,0,0,2.43-5.15A37,37,0,0,0,451.86,23q.48-3.27,1-6.68a4.31,4.31,0,0,0,1-1.53,19.43,19.43,0,0,0,.63-1.91c.19-.68.37-1.35.56-2A9.85,9.85,0,0,1,455.75,9a4,4,0,0,1,1.78.67,11.23,11.23,0,0,1,1.35,1.11,16,16,0,0,0,1.33,1.11,3.57,3.57,0,0,0,1.73.66c.56.79,1.07,1.56,1.54,2.3a6.48,6.48,0,0,1,.9,2.36,4.29,4.29,0,0,0-.52,1.26c-.12.46-.25.92-.38,1.39a5.91,5.91,0,0,1-.56,1.28,3,3,0,0,1-1,1,33.48,33.48,0,0,1-.52,3.31c-.21,1-.41,2-.62,2.95s-.39,2-.52,3a19.92,19.92,0,0,0-.14,3.44c-.38,1.07-.77,2.21-1.19,3.41s-.74,2.3-1,3.27a6.69,6.69,0,0,0-1.74,2.16c-.42.83-.86,1.67-1.32,2.5-.19.19-.3.24-.35.14s-.21-.16-.49-.21a.59.59,0,0,1,0,.42.74.74,0,0,1-.17.25.53.53,0,0,0-.14.31,1.18,1.18,0,0,0,.1.56,5.22,5.22,0,0,0-1.73,1.18,14.36,14.36,0,0,1-1.64,1.39,4.82,4.82,0,0,1-2.09.83,6.54,6.54,0,0,1-3.16-.48,27.05,27.05,0,0,1-5.05-4.8A23,23,0,0,1,436.62,39.31Z"/><path class="cls-1" d="M477.32,47.1a5.45,5.45,0,0,1-.24,3.27,4,4,0,0,1-1.67,1.77,5.53,5.53,0,0,1-2.47.66,12.1,12.1,0,0,1-2.65-.14A11,11,0,0,1,469,50.23c-.37-1-.72-2-1-3s-.62-2.07-.87-3.09-.48-1.93-.66-2.72a6.61,6.61,0,0,0,.45-1.91c.07-.72.11-1.45.14-2.19s0-1.5.07-2.26a21.17,21.17,0,0,1,.17-2.19,32.69,32.69,0,0,1,1.43-5.57,38.86,38.86,0,0,0,1.49-5.49,1.85,1.85,0,0,0-.1-1.19,1.54,1.54,0,0,1-.11-1,.55.55,0,0,1,.42-.38.57.57,0,0,0,.42-.46,2.69,2.69,0,0,0,.1-1.25,1.86,1.86,0,0,1,.25-1.18c.23-.37.52-.92.87-1.64a4,4,0,0,0,.38-2.26,7.15,7.15,0,0,0,1.18-1,11.88,11.88,0,0,1,1.15-1,7.47,7.47,0,0,1,1.32-.8,4.15,4.15,0,0,1,1.78-.35,3.73,3.73,0,0,1,.73,1.53c.11.56.23,1.12.34,1.67a6.75,6.75,0,0,0,.53,1.57,2.44,2.44,0,0,0,1.18,1.15v1.39c0,.55,0,1.1.07,1.63a5.39,5.39,0,0,0,.31,1.46,1.37,1.37,0,0,0,.8.87q-1.24,3.35-2.33,6.61a59.83,59.83,0,0,0-1.77,6.58,41.49,41.49,0,0,0-.87,6.64A28.55,28.55,0,0,0,477.32,47.1Z"/><path class="cls-1" d="M499.65,39.31a1.22,1.22,0,0,0-.9.73c-.19.39-.36.8-.52,1.22s-.33.8-.49,1.14a.78.78,0,0,1-.73.52,2.12,2.12,0,0,1-.38,1q-.31.42-.6.87a3.63,3.63,0,0,0-.41,1,1.86,1.86,0,0,0,.14,1.22,1.78,1.78,0,0,0-.7,1.18c-.09.51-.2,1-.31,1.46a3,3,0,0,1-.59,1.19,1.8,1.8,0,0,1-1.53.41c-.14.19-.17.31-.07.35s.16.21.2.49a1.62,1.62,0,0,0-1.14.1,2.37,2.37,0,0,1-.94.32A4.54,4.54,0,0,1,488.49,51,11.88,11.88,0,0,1,487,48.66a26.37,26.37,0,0,1-1.19-2.6c-.35-.89-.68-1.65-1-2.3a3.19,3.19,0,0,0,.07-1.5,3,3,0,0,0-.48-1.21q3.4-7.24,7.44-15.45t7.65-16.21c1.07.42,2.12.9,3.17,1.43a16.57,16.57,0,0,1,2.85,1.84,10.83,10.83,0,0,1,2.19,2.4,7.68,7.68,0,0,1,1.18,3c-.09.28-.19.38-.31.31s-.22,0-.31.11a1.74,1.74,0,0,1,.31.48.66.66,0,0,1,0,.28,1.87,1.87,0,0,0,0,.38,1.54,1.54,0,0,0,.21.66c-.19,0-.32,0-.39.07s-.22.1-.45,0a2.32,2.32,0,0,1,.17,1.26,3,3,0,0,1-.31.87,4.81,4.81,0,0,0-.35.83,2,2,0,0,0,.07,1.15.41.41,0,0,0-.31.1,1,1,0,0,0-.17.21,1.68,1.68,0,0,1-.18.21.29.29,0,0,1-.31,0,17.43,17.43,0,0,1,.14,3.06c-.05,1-.08,2.05-.11,3.09s0,2.14,0,3.27A19.33,19.33,0,0,0,507,38a11.84,11.84,0,0,0,4-3.76,22,22,0,0,0,2.43-5.15A37,37,0,0,0,514.89,23q.48-3.27,1-6.68a4.47,4.47,0,0,0,1-1.53c.23-.6.43-1.24.62-1.91s.37-1.35.56-2A10.6,10.6,0,0,1,518.78,9a4,4,0,0,1,1.78.67,11.23,11.23,0,0,1,1.35,1.11,16,16,0,0,0,1.33,1.11,3.57,3.57,0,0,0,1.74.66c.55.79,1.06,1.56,1.53,2.3a6.48,6.48,0,0,1,.9,2.36,4.29,4.29,0,0,0-.52,1.26c-.12.46-.25.92-.38,1.39a5.91,5.91,0,0,1-.56,1.28,3.11,3.11,0,0,1-1,1c-.14,1.21-.32,2.31-.53,3.31s-.41,2-.62,2.95-.39,2-.52,3a19.92,19.92,0,0,0-.14,3.44c-.38,1.07-.77,2.21-1.19,3.41s-.74,2.3-1,3.27a6.69,6.69,0,0,0-1.74,2.16c-.42.83-.86,1.67-1.32,2.5-.19.19-.3.24-.35.14s-.21-.16-.49-.21a.59.59,0,0,1,0,.42.74.74,0,0,1-.17.25.53.53,0,0,0-.14.31,1.09,1.09,0,0,0,.11.56,5.37,5.37,0,0,0-1.74,1.18,13.54,13.54,0,0,1-1.64,1.39,4.77,4.77,0,0,1-2.09.83,6.54,6.54,0,0,1-3.16-.48,27.05,27.05,0,0,1-5-4.8A23,23,0,0,1,499.65,39.31Z"/></g></g></svg>